<svg width="710" height="710" viewbox = "0 0 710 710"  xmlns="http://www.w3.org/2000/svg">
<!--<json>{
  "glyph": "0321,0335,0221,0334,0334,0220,0335,0221,0334,0222,0223,0331,0334,0225,0220,0225,0334,0336,0201,0337,0221,0336,0331,0337,0335,0335,0335,0331,0331,0336,0201,0333,0350,0334,0343,0335,0330,0335,0335,0337,0304,0221,0334,0331,0336,0332,0337,0225,0335,0220,0221,0331,0334,0334,0337,0342,0333,0342,0332,0335,0335,0335,0336,0222,0223,0335,0335,0330,0333,0333,0333,0333,0332,0330,0330,0330,0330,0332,0336,0330,0337,0221,0335,0335,0224,0330,0223,0335,0335,0331,0331,0332,0332,0332,0332,0336,0330,0334,0366,0332,0330,0330,0335,0331,0336,0330,0337,0335,0367,0335,0335,0342,0332,0331,0331,0332,0332,0336,0333,0337,0366,0330,0333,0330,0335,0335,0336,0332,0337,0367,0334,0334,0342,0335,0327,0330,0332,0336,0331,0337,0341,",
  "x0": 505,
  "y0": 255,
  "unit": 93.72000000000001,
  "width": 710,
  "height": 710,
  "style": {
    "color0": "black",
    "fill0": "black",
    "line0": 1,
    "color1": "black",
    "fill1": "black",
    "line1": 5,
    "color2": "red",
    "fill2": "red",
    "line2": 1,
    "color3": "#FF7900",
    "fill3": "#FF7900",
    "line3": 1,
    "color4": "yellow",
    "fill4": "yellow",
    "line4": 1,
    "color5": "green",
    "fill5": "green",
    "line5": 1,
    "color6": "blue",
    "fill6": "blue",
    "line6": 1,
    "color7": "purple",
    "fill7": "purple",
    "line7": 1
  },
  "shapes": [
    "0220:0336,0336,0336,0336,0336,0201,0337,0362,0203,0306,0334,0337,0203,0335,0335,0203,0203,0334,0334,0203,0203,0335,0335,0203,0203,0334,0334,0203,0203,0335,0335,0203,0203,0334,0334,0203,0335,0203,0336,0336,0203,0364,0304,0337,0337,0337,0337,0337,",
    "0221:0336,0336,0201,0336,0336,0330,0341,0331,0337,0337,0331,0337,0337,",
    "0222:0336,0336,0362,0203,0336,0203,0334,0364,0337,0342,0335,0335,0342,0332,0342,0335,0335,0342,0335,0336,0362,0203,0337,0203,0335,0364,0335,0337,0337,0335,0335,",
    "0223:0336,0335,0335,0336,0331,0342,0337,0304,0336,0336,0335,0310,0362,0203,0335,0350,0335,0337,0203,0335,0335,0203,0335,0335,0335,0336,0203,0354,0304,0334,0313,0337,0337,0304,0336,0330,0337,0335,0335,0337,",
    "0224:0336,0336,0342,0330,0336,0330,0336,0331,0341,0331,0337,0337,0331,0337,0337,0330,0335,0335,0336,0336,0342,0330,0336,0336,0330,0341,0331,0335,0335,0337,0337,0330,0337,0337,0331,0336,0330,0332,0336,0333,0336,0333,0331,0337,0336,0331,0336,0330,0337,0337,0342,0330,0336,0342,0336,0331,0337,0334,0337,0342,0335,0333,0331,0331,0336,0332,0337,0337,0337,",
    "0225:0336,0336,0336,0336,0347,0337,0337,0337,0337,",
    "0227:0325,0226,0330,0330,0330,0330,0330,0330,0330,0322,0226,0331,0331,0331,0331,0331,0331,0331,0331,0331,0331,0331,0331,0331,0331,0326,0226,0330,0330,0330,0330,0330,0330,0201,",
    "0230:0335,0201,0336,0331,0335,0337,0234,0220,0234,0334,0336,0331,0337,0342,0334,0333,0330,",
    "0231:0335,0330,0334,0334,0221,0335,0331,0335,0201,0332,0334,",
    "0232:0335,0342,0336,0330,0335,0337,0234,0221,0335,0234,0335,0335,0336,0331,0337,0342,0334,0330,0333,",
    "0233:0335,0236,0333,0236,0334,0330,",
    "0234:0336,0336,0336,0336,0347,0337,0337,0337,0337,",
    "0235:0336,0366,0330,0333,0333,0336,0331,0337,0367,0335,0335,0366,0331,0333,0333,0367,0335,0335,0337,",
    "0236:0336,0201,0336,0336,0330,0341,0331,0337,0337,0331,0337,",
    "0237:0336,0366,0330,0333,0333,0336,0331,0337,0367,0335,0335,0366,0331,0333,0333,0367,0335,0335,0337,",
    "01220:0333,0200,0336,0332,0337,0220,0336,0333,0337,0331,",
    "01221:0333,0200,0336,0332,0337,0336,0336,0336,0332,0337,0337,0337,0221,0336,0333,0336,0336,0333,0337,0337,0337,",
    "01222:0333,0200,0336,0332,0337,0222,0336,0333,0337,0331,",
    "01223:0333,0200,0336,0332,0337,0330,0336,0331,0337,0223,0336,0331,0333,0337,",
    "01224:0333,0200,0336,0330,0332,0336,0331,0337,0224,0336,0331,0333,0333,0337,0337,",
    "01225:0333,0200,0336,0330,0332,0225,0331,0333,0337,",
    "01226:0333,0200,",
    "01227:0333,0200,0336,0330,0332,0336,0336,0332,0332,0336,0336,0227,0337,0337,0337,0332,0337,0331,0333,0333,0337,",
    "01230:0333,0200,0336,0330,0332,0336,0330,0332,0337,0230,0336,0333,0330,0337,0337,0331,",
    "01231:0333,0200,0336,0330,0332,0336,0330,0332,0337,0231,0331,0336,0331,0333,0337,0337,",
    "01232:0333,0200,0336,0330,0332,0336,0330,0332,0337,0232,0336,0333,0330,0337,0337,0331,",
    "01233:0333,0200,0336,0330,0332,0336,0330,0332,0337,0233,0333,0336,0333,0330,0337,0337,0331,",
    "01234:0333,0200,0336,0330,0332,0234,0342,0335,0342,0335,0342,0335,0342,0335,0331,0333,0337,",
    "01235:0333,0200,0336,0330,0332,0336,0332,0330,0337,0235,0331,0336,0333,0331,0337,0337,",
    "01236:0333,0200,0336,0330,0332,0236,0331,0333,0337,",
    "01237:0333,0200,0336,0330,0332,0336,0331,0332,0332,0337,0337,0237,0331,0333,",
    "0240:0220,0336,0331,0333,0336,0321,0335,0342,0335,0335,0342,0335,0330,0330,0332,0332,0337,0337,",
    "01240:0333,0200,0336,0330,0332,0210,0240,0211,0333,0331,0337,",
    "0241:0220,0336,0321,0343,0332,0350,0335,0336,0342,0334,0334,0342,0335,0304,0337,0333,0337,",
    "01241:0333,0200,0336,0332,0330,0210,0241,0211,0333,0331,0337,",
    "0242:0220,0321,0336,0343,0333,0336,0350,0335,0342,0334,0334,0342,0335,0337,0304,0332,0337,",
    "01242:0333,0200,0336,0330,0332,0210,0242,0211,0333,0331,0337,",
    "0243:0220,0336,0331,0332,0336,0321,0343,0332,0350,0334,0336,0342,0335,0335,0342,0337,0334,0334,0335,0304,0332,0330,0330,0337,0337,0333,",
    "01243:0333,0200,0336,0330,0332,0210,0243,0211,0333,0331,0337,",
    "0244:0220,0336,0331,0333,0336,0321,0343,0333,0350,0336,0335,0342,0334,0334,0342,0335,0337,0304,0333,0330,0330,0337,0337,0332,",
    "01244:0333,0200,0336,0330,0332,0210,0244,0211,0333,0331,0337,",
    "0245:0210,0332,0332,0362,0335,0203,0203,0203,0203,0334,0203,0363,0332,0332,0331,0211,",
    "01245:0333,0200,0336,0330,0332,0336,0245,0337,0333,0331,0337,",
    "0246:0210,0332,0332,0335,0306,0336,0330,0335,0335,0335,0321,0362,0203,0335,0335,0203,0364,0331,0350,0335,0337,0366,0333,0333,0333,0333,0334,0334,0334,0334,0367,0335,0336,0342,0334,0334,0342,0330,0330,0330,0330,0335,0335,0335,0304,0337,0211,",
    "01246:0333,0200,0336,0330,0332,0336,0246,",
    "0247:0330,0332,0336,0332,0336,0221,0333,0333,0333,0222,0333,0333,0333,0223,0333,0333,0333,0225,0333,0331,0331,0331,0332,0332,0332,0332,0332,0332,0332,0332,0332,0332,0332,0332,0333,0333,0226,0331,0331,0331,0333,0333,0333,0333,0333,0333,0333,0333,0333,0333,0333,0333,0333,0330,0333,0330,0330,0333,0330,0331,0332,0332,0332,0332,0332,0332,0332,0332,0332,0332,0332,0332,0227,0333,0333,0333,0230,0333,0331,0331,0331,0331,0332,0332,0332,0330,0332,0332,0332,0332,0332,0332,0333,0333,0231,0333,0333,0333,0232,0331,0333,0330,0333,0333,0233,0333,0333,0333,0234,0330,0330,0332,0330,0332,0332,0337,0337,",
    "01247:0333,0200,0336,0330,0332,0220,0336,0247,0337,0331,0333,0337,"
  ]
}</json>-->    <line x1="505" y1="255" x2="528" y2="255" style="stroke:#000000;stroke-width:5" />
<circle cx="534" cy = "255" r = "5.857500000000001" stroke = "#000000" stroke-width = "5" fill = "none" />
    <line x1="505" y1="255" x2="502" y2="255" style="stroke:#000000;stroke-width:5" />
	<path d = "M502 255 L496 255 L490 265 L484 255 L479 245 L473 255 L467 265 L461 255 L455 245 L449 255 L443 265 L438 255 L432 245 L426 255 L414 255 L411 255 " stroke = "#000000" stroke-width = "5" fill = "none" />    <line x1="411" y1="255" x2="411" y2="232" style="stroke:#000000;stroke-width:5" />
<circle cx="411" cy = "226" r = "5.857500000000001" stroke = "#000000" stroke-width = "5" fill = "none" />
	<path d = "M411 255 L388 255 L376 255 " stroke = "#000000" stroke-width = "5" fill = "none" />    <line x1="376" y1="255" x2="376" y2="278" style="stroke:#000000;stroke-width:5" />
    <line x1="376" y1="255" x2="376" y2="232" style="stroke:#000000;stroke-width:5" />
    <line x1="353" y1="255" x2="353" y2="232" style="stroke:#000000;stroke-width:5" />
    <line x1="353" y1="255" x2="353" y2="278" style="stroke:#000000;stroke-width:5" />
	<path d = "M353 255 L341 255 L318 255 " stroke = "#000000" stroke-width = "5" fill = "none" />    <line x1="294" y1="255" x2="318" y2="255" style="stroke:#000000;stroke-width:5" />
	<path d = "M294 255 L294 267 L282 255 L294 243 L294 255 Z" stroke = "#000000" stroke-width = "5" fill = "none" />    <circle cx="411" cy = "255" r = "5.857500000000001" stroke = "#000000" stroke-width = "5" fill = "#000000" />
    <line x1="411" y1="255" x2="411" y2="258" style="stroke:#000000;stroke-width:5" />
	<path d = "M411 258 L411 264 L421 270 L411 276 L401 281 L411 287 L421 293 L411 299 L401 305 L411 311 L421 317 L411 322 L401 328 L411 334 L411 346 L411 349 " stroke = "#000000" stroke-width = "5" fill = "none" />    <circle cx="411" cy = "349" r = "5.857500000000001" stroke = "#000000" stroke-width = "5" fill = "#000000" />
    <line x1="411" y1="349" x2="458" y2="349" style="stroke:#000000;stroke-width:5" />
    <line x1="458" y1="349" x2="482" y2="349" style="stroke:#000000;stroke-width:5" />
<circle cx="487" cy = "349" r = "5.857500000000001" stroke = "#000000" stroke-width = "5" fill = "none" />
    <line x1="411" y1="536" x2="411" y2="489" style="stroke:#000000;stroke-width:5" />
  <path d="M411.2799999999977 489.3000000000015           A46.86000000000001 46.86000000000001 0 0 1 458.1399999999982 442.44000000000193" fill = "none" stroke = "#000000" stroke-width = "5" />
    <line x1="458" y1="442" x2="482" y2="442" style="stroke:#000000;stroke-width:5" />
<circle cx="487" cy = "442" r = "5.857500000000001" stroke = "#000000" stroke-width = "5" fill = "none" />
    <circle cx="411" cy = "536" r = "5.857500000000001" stroke = "#000000" stroke-width = "5" fill = "#000000" />
    <line x1="411" y1="536" x2="414" y2="536" style="stroke:#000000;stroke-width:5" />
	<path d = "M414 536 L420 536 L426 526 L432 536 L438 546 L443 536 L449 526 L455 536 L461 546 L467 536 L473 526 L479 536 L484 546 L490 536 L502 536 L505 536 " stroke = "#000000" stroke-width = "5" fill = "none" />    <line x1="505" y1="536" x2="528" y2="536" style="stroke:#000000;stroke-width:5" />
<circle cx="534" cy = "536" r = "5.857500000000001" stroke = "#000000" stroke-width = "5" fill = "none" />
    <line x1="411" y1="536" x2="224" y2="536" style="stroke:#000000;stroke-width:5" />
    <line x1="411" y1="349" x2="224" y2="349" style="stroke:#000000;stroke-width:5" />
	<path d = "M411 536 L411 560 L411 571 " stroke = "#000000" stroke-width = "5" fill = "none" />    <line x1="411" y1="571" x2="435" y2="571" style="stroke:#000000;stroke-width:5" />
    <line x1="411" y1="571" x2="388" y2="571" style="stroke:#000000;stroke-width:5" />
    <line x1="411" y1="595" x2="388" y2="595" style="stroke:#000000;stroke-width:5" />
    <line x1="411" y1="595" x2="435" y2="595" style="stroke:#000000;stroke-width:5" />
	<path d = "M411 595 L411 606 L411 630 " stroke = "#000000" stroke-width = "5" fill = "none" />    <line x1="411" y1="653" x2="411" y2="630" style="stroke:#000000;stroke-width:5" />
	<path d = "M411 653 L423 653 L411 665 L400 653 L411 653 Z" stroke = "#000000" stroke-width = "5" fill = "none" />    <line x1="599" y1="114" x2="599" y2="91" style="stroke:#000000;stroke-width:5" />
<circle cx="599" cy = "85" r = "5.857500000000001" stroke = "#000000" stroke-width = "5" fill = "none" />
    <line x1="599" y1="114" x2="599" y2="138" style="stroke:#000000;stroke-width:5" />
<circle cx="599" cy = "144" r = "5.857500000000001" stroke = "#000000" stroke-width = "5" fill = "none" />
    <line x1="599" y1="208" x2="599" y2="185" style="stroke:#000000;stroke-width:5" />
<circle cx="599" cy = "179" r = "5.857500000000001" stroke = "#000000" stroke-width = "5" fill = "none" />
    <line x1="610" y1="144" x2="610" y2="167" style="stroke:#000000;stroke-width:5" />
    <line x1="610" y1="167" x2="610" y2="179" style="stroke:#000000;stroke-width:5" />
    <line x1="610" y1="161" x2="634" y2="161" style="stroke:#000000;stroke-width:5" />
    <line x1="599" y1="232" x2="599" y2="208" style="stroke:#000000;stroke-width:5" />
	<path d = "M599 232 L610 232 L599 243 L587 232 L599 232 Z" stroke = "#000000" stroke-width = "5" fill = "none" /><path    d = "M224,349 C177,349 177,419 130,419" fill = "none" stroke-width = "5" stroke = "#000000" />    <line x1="130" y1="419" x2="83" y2="419" style="stroke:#000000;stroke-width:5" />
<path    d = "M224,536 C177,536 177,466 130,466" fill = "none" stroke-width = "5" stroke = "#000000" />    <line x1="130" y1="466" x2="83" y2="466" style="stroke:#000000;stroke-width:5" />
<circle cx="83" cy = "442" r = "46.86000000000001" stroke = "#800080" stroke-width = "1" fill = "none" />
</svg>